<svg xmlns="http://www.w3.org/2000/svg" xmlns:xlink="http://www.w3.org/1999/xlink" viewBox="0 0 30 30"><defs><style>.cls-1{mask:url(#mask);}.cls-2,.cls-4,.cls-7{mix-blend-mode:multiply;}.cls-2{fill:url(#linear-gradient);}.cls-3{mask:url(#mask-2);}.cls-4{fill:url(#linear-gradient-2);}.cls-5{isolation:isolate;}.cls-6{fill:#6e6d6c;}.cls-7{fill:#504d4d;opacity:0.15;}.cls-8{fill:url(#linear-gradient-3);}.cls-9{mask:url(#mask-3);}.cls-10{fill:url(#linear-gradient-4);}.cls-11{fill:url(#linear-gradient-5);}.cls-12{mask:url(#mask-4);}.cls-13{fill:url(#linear-gradient-6);}.cls-14{filter:url(#luminosity-noclip-4);}.cls-15{filter:url(#luminosity-noclip-3);}.cls-16{filter:url(#luminosity-noclip-2);}.cls-17{filter:url(#luminosity-noclip);}</style><filter id="luminosity-noclip" x="2.49" y="-8208" width="26.22" height="32766" filterUnits="userSpaceOnUse" color-interpolation-filters="sRGB"><feFlood flood-color="#fff" result="bg"/><feBlend in="SourceGraphic" in2="bg"/></filter><mask id="mask" x="2.49" y="-8208" width="26.22" height="32766" maskUnits="userSpaceOnUse"><g class="cls-17"/></mask><linearGradient id="linear-gradient" x1="16.2" y1="-5.81" x2="16.2" y2="4.86" gradientTransform="translate(4.74 -2.64) rotate(25.36)" gradientUnits="userSpaceOnUse"><stop offset="0" stop-color="#fff"/><stop offset="1"/></linearGradient><filter id="luminosity-noclip-2" x="5.86" y="-8208" width="24.31" height="32766" filterUnits="userSpaceOnUse" color-interpolation-filters="sRGB"><feFlood flood-color="#fff" result="bg"/><feBlend in="SourceGraphic" in2="bg"/></filter><mask id="mask-2" x="5.86" y="-8208" width="24.31" height="32766" maskUnits="userSpaceOnUse"><g class="cls-16"/></mask><linearGradient id="linear-gradient-2" x1="173.51" y1="279.36" x2="176.69" y2="288.6" gradientTransform="translate(16.6 -316.41) rotate(31.39)" xlink:href="#linear-gradient"/><linearGradient id="linear-gradient-3" x1="11.78" y1="-1.95" x2="19.68" y2="17.72" gradientTransform="translate(4.74 -2.64) rotate(25.36)" gradientUnits="userSpaceOnUse"><stop offset="0" stop-color="#fab612"/><stop offset="1" stop-color="#ed6b1d"/></linearGradient><filter id="luminosity-noclip-3" x="2.49" y="1.76" width="26.22" height="14.5" filterUnits="userSpaceOnUse" color-interpolation-filters="sRGB"><feFlood flood-color="#fff" result="bg"/><feBlend in="SourceGraphic" in2="bg"/></filter><mask id="mask-3" x="1.5" y="0.76" width="26.22" height="14.5" maskUnits="userSpaceOnUse"><g class="cls-15"><g transform="translate(-1 -1)"><g class="cls-1"><path class="cls-2" d="M27.83,8.54A13.87,13.87,0,0,0,3.38,9.69a14.45,14.45,0,0,0-.89,2.42q.13-.36.3-.72A8.29,8.29,0,0,1,13.94,7.83,8.87,8.87,0,0,1,18.14,12a6.49,6.49,0,0,0,9.1,3.55,6.1,6.1,0,0,0,.92-1.39A5.84,5.84,0,0,0,27.83,8.54Z"/></g></g></g></mask><linearGradient id="linear-gradient-4" x1="16.2" y1="-5.81" x2="16.2" y2="4.86" gradientTransform="translate(4.74 -2.64) rotate(25.36)" gradientUnits="userSpaceOnUse"><stop offset="0" stop-color="#fff"/><stop offset="1" stop-color="#fff"/></linearGradient><linearGradient id="linear-gradient-5" x1="274.94" y1="441.87" x2="299.07" y2="441.87" gradientTransform="matrix(0.82, 0.58, -0.58, 0.82, 36.65, -508.14)" xlink:href="#linear-gradient-3"/><filter id="luminosity-noclip-4" x="5.86" y="13.28" width="24.31" height="14.44" filterUnits="userSpaceOnUse" color-interpolation-filters="sRGB"><feFlood flood-color="#fff" result="bg"/><feBlend in="SourceGraphic" in2="bg"/></filter><mask id="mask-4" x="4.86" y="12.28" width="24.31" height="14.44" maskUnits="userSpaceOnUse"><g class="cls-14"><g transform="translate(-1 -1)"><g class="cls-3"><path class="cls-4" d="M30.16,19.16a8,8,0,0,1-9.27,4.76,10.57,10.57,0,0,1-6.31-5.79,15.61,15.61,0,0,0-1.9-3.35,4.2,4.2,0,0,0-4.61-1.23,3.94,3.94,0,0,0-2.21,3.39,9.74,9.74,0,0,0,1.78,5.11,13.61,13.61,0,0,0,13.17,5.48C26.81,26.42,29.36,22.77,30.16,19.16Z"/></g></g></g></mask><linearGradient id="linear-gradient-6" x1="173.51" y1="279.36" x2="176.69" y2="288.6" gradientTransform="translate(16.6 -316.41) rotate(31.39)" xlink:href="#linear-gradient-4"/></defs><g class="cls-5"><g id="Layer_1" data-name="Layer 1"><path class="cls-6" d="M28,15c-5.13,5-7.7-11-17.57-10-6.14.63-8,4.55-8.71,6.39A15,15,0,0,0,17,31c.75,0,1.7,0,2.18-1,.3-.6.16-1.36-.91-1.81-2.51-1-1.43-4,1.93-3.26C22,25.26,29,26.31,31,17.1c0-.44,0-.87,0-1.3C30.86,14,29.39,13.66,28,15Z" transform="translate(-1 -1)"/><path class="cls-7" d="M30.88,16v-.06c-.09-1.19-.78-1.74-1.64-1.58l-.11.14a6.28,6.28,0,0,1-11.68-.83,8.63,8.63,0,0,0-15.69-.18C5.57,8.76,11,8.58,13.62,11s2.15,5.89,6.82,8.29C24.73,21.47,28.55,20.13,30.88,16Z" transform="translate(-1 -1)"/><path class="cls-8" d="M28.88,8.33A15,15,0,0,0,2.45,9.58a14.84,14.84,0,0,0-1.4,7.62,8.5,8.5,0,0,1,.83-3.85,8.62,8.62,0,0,1,15.68.19A6.28,6.28,0,1,0,28.88,8.33Z" transform="translate(-1 -1)"/><g class="cls-9"><path class="cls-10" d="M27.83,8.54A13.87,13.87,0,0,0,3.38,9.69a14.45,14.45,0,0,0-.89,2.42q.13-.36.3-.72A8.29,8.29,0,0,1,13.94,7.83,8.87,8.87,0,0,1,18.14,12a6.49,6.49,0,0,0,9.1,3.55,6.1,6.1,0,0,0,.92-1.39A5.84,5.84,0,0,0,27.83,8.54Z" transform="translate(-1 -1)"/></g><path class="cls-11" d="M31,15.54c.21,4.75-4.92,7.8-9.35,6.81-3.72-.82-5.35-3.5-6.71-6a13.38,13.38,0,0,0-2.16-3.13A4.53,4.53,0,0,0,6,13.66C3.9,16.34,4.86,20.32,7.37,23.3a14.49,14.49,0,0,0,14.57,4.32C29.35,25.44,31.18,20,31,15.54Z" transform="translate(-1 -1)"/><g class="cls-12"><path class="cls-13" d="M30.16,19.16a8,8,0,0,1-9.27,4.76,10.57,10.57,0,0,1-6.31-5.79,15.61,15.61,0,0,0-1.9-3.35,4.2,4.2,0,0,0-4.61-1.23,3.94,3.94,0,0,0-2.21,3.39,9.74,9.74,0,0,0,1.78,5.11,13.61,13.61,0,0,0,13.17,5.48C26.81,26.42,29.36,22.77,30.16,19.16Z" transform="translate(-1 -1)"/></g></g></g></svg>