<svg xmlns="http://www.w3.org/2000/svg" xmlns:xlink="http://www.w3.org/1999/xlink" viewBox="0 0 150 150"><defs><style>.cls-1{mask:url(#mask);}.cls-2,.cls-4,.cls-7{mix-blend-mode:multiply;}.cls-2{fill:url(#linear-gradient);}.cls-3{mask:url(#mask-2);}.cls-4{fill:url(#linear-gradient-2);}.cls-5{isolation:isolate;}.cls-6{fill:#6e6d6c;}.cls-7{fill:#504d4d;opacity:0.15;}.cls-8{fill:url(#linear-gradient-3);}.cls-9{mask:url(#mask-3);}.cls-10{fill:url(#linear-gradient-4);}.cls-11{fill:url(#linear-gradient-5);}.cls-12{mask:url(#mask-4);}.cls-13{fill:url(#linear-gradient-6);}.cls-14{filter:url(#luminosity-noclip-4);}.cls-15{filter:url(#luminosity-noclip-3);}.cls-16{filter:url(#luminosity-noclip-2);}.cls-17{filter:url(#luminosity-noclip);}</style><filter id="luminosity-noclip" x="13.25" y="-8272" width="131.11" height="32766" filterUnits="userSpaceOnUse" color-interpolation-filters="sRGB"><feFlood flood-color="#fff" result="bg"/><feBlend in="SourceGraphic" in2="bg"/></filter><mask id="mask" x="13.25" y="-8272" width="131.11" height="32766" maskUnits="userSpaceOnUse"><g class="cls-17"/></mask><linearGradient id="linear-gradient" x1="72.62" y1="-14.37" x2="72.62" y2="38.96" gradientTransform="translate(38.32 -23.88) rotate(25.36)" gradientUnits="userSpaceOnUse"><stop offset="0" stop-color="#fff"/><stop offset="1"/></linearGradient><filter id="luminosity-noclip-2" x="30.06" y="-8272" width="121.53" height="32766" filterUnits="userSpaceOnUse" color-interpolation-filters="sRGB"><feFlood flood-color="#fff" result="bg"/><feBlend in="SourceGraphic" in2="bg"/></filter><mask id="mask-2" x="30.06" y="-8272" width="121.53" height="32766" maskUnits="userSpaceOnUse"><g class="cls-16"/></mask><linearGradient id="linear-gradient-2" x1="241.23" y1="323.35" x2="257.13" y2="369.53" gradientTransform="translate(59.3 -340.38) rotate(31.39)" xlink:href="#linear-gradient"/><linearGradient id="linear-gradient-3" x1="50.51" y1="4.92" x2="90.03" y2="103.29" gradientTransform="translate(38.32 -23.88) rotate(25.36)" gradientUnits="userSpaceOnUse"><stop offset="0" stop-color="#fab612"/><stop offset="1" stop-color="#ed6b1d"/></linearGradient><filter id="luminosity-noclip-3" x="13.25" y="7.81" width="131.11" height="72.48" filterUnits="userSpaceOnUse" color-interpolation-filters="sRGB"><feFlood flood-color="#fff" result="bg"/><feBlend in="SourceGraphic" in2="bg"/></filter><mask id="mask-3" x="7.48" y="3.81" width="131.11" height="72.48" maskUnits="userSpaceOnUse"><g class="cls-15"><g transform="translate(-5.77 -4)"><g class="cls-1"><path class="cls-2" d="M139.91,41.72A69.33,69.33,0,0,0,17.66,47.47a70.62,70.62,0,0,0-4.41,12.09c.43-1.21.91-2.42,1.47-3.61C24.17,36,49.12,28.05,70.46,38.17a44.33,44.33,0,0,1,21,20.63,32,32,0,0,0,16.65,18.29A31.72,31.72,0,0,0,137,76.54a29.06,29.06,0,0,0,2.95-34.82Z"/></g></g></g></mask><linearGradient id="linear-gradient-4" x1="72.62" y1="-14.37" x2="72.62" y2="38.96" gradientTransform="translate(38.32 -23.88) rotate(25.36)" gradientUnits="userSpaceOnUse"><stop offset="0" stop-color="#fff"/><stop offset="1" stop-color="#fff"/></linearGradient><linearGradient id="linear-gradient-5" x1="300.91" y1="509.29" x2="421.55" y2="509.29" gradientTransform="matrix(0.82, 0.58, -0.58, 0.82, 85.09, -533.31)" xlink:href="#linear-gradient-3"/><filter id="luminosity-noclip-4" x="30.06" y="65.42" width="121.53" height="72.19" filterUnits="userSpaceOnUse" color-interpolation-filters="sRGB"><feFlood flood-color="#fff" result="bg"/><feBlend in="SourceGraphic" in2="bg"/></filter><mask id="mask-4" x="24.3" y="61.42" width="121.53" height="72.19" maskUnits="userSpaceOnUse"><g class="cls-14"><g transform="translate(-5.77 -4)"><g class="cls-3"><path class="cls-4" d="M151.59,94.8c-5.66,17.32-28.54,29.25-46.35,23.82-17.42-5.31-26-18.27-31.57-28.95-2.74-5.27-5.13-11.9-9.51-16.75-6.16-6.81-15.58-9.27-23-6.18-8.56,3.54-11.14,13.51-11,17,.22,8.47,3.48,17.55,8.89,25.56,12.86,19.06,40.14,32.1,65.87,27.38C134.85,131.12,147.56,112.84,151.59,94.8Z"/></g></g></g></mask><linearGradient id="linear-gradient-6" x1="241.23" y1="323.35" x2="257.13" y2="369.53" gradientTransform="translate(59.3 -340.38) rotate(31.39)" xlink:href="#linear-gradient-4"/></defs><g class="cls-5"><g id="Layer_1" data-name="Layer 1"><path class="cls-6" d="M140.73,74.06c-25.64,24.76-38.5-55-87.87-49.91C22.18,27.29,13,46.89,9.35,56.09a75,75,0,0,0,76.37,97.74c3.77-.25,8.52-.24,10.92-5.07,1.51-3,.81-6.8-4.56-9-12.54-5.23-7.15-19.91,9.66-16.33,8.84,1.89,43.82,7.14,53.8-38.91.15-2.17.21-4.33.18-6.5C155.07,69.14,147.73,67.3,140.73,74.06Z" transform="translate(-5.77 -4)"/><path class="cls-7" d="M155.17,79v-.32c-.44-5.92-3.88-8.7-8.2-7.86l-.56.7a31.39,31.39,0,0,1-58.36-4.15A43.16,43.16,0,0,0,9.6,66.44C28.64,42.82,56,41.9,68.88,53.88S79.63,83.37,103,95.35C124.44,106.37,143.51,99.65,155.17,79Z" transform="translate(-5.77 -4)"/><path class="cls-8" d="M145.19,40.67A75,75,0,0,0,6,85,43.16,43.16,0,0,1,88.6,66.68a31.4,31.4,0,1,0,56.59-26Z" transform="translate(-5.77 -4)"/><g class="cls-9"><path class="cls-10" d="M139.91,41.72A69.33,69.33,0,0,0,17.66,47.47a70.62,70.62,0,0,0-4.41,12.09c.43-1.21.91-2.42,1.47-3.61C24.17,36,49.12,28.05,70.46,38.17a44.33,44.33,0,0,1,21,20.63,32,32,0,0,0,16.65,18.29A31.72,31.72,0,0,0,137,76.54a29.06,29.06,0,0,0,2.95-34.82Z" transform="translate(-5.77 -4)"/></g><path class="cls-11" d="M155.7,76.72c1,23.72-24.6,39-46.75,34.05-18.62-4.14-26.76-17.54-33.58-30.2-3-5.54-6.05-10.81-10.79-15.68-9.49-9.76-25.48-8-33.74,2.42-10.58,13.4-5.74,33.27,6.8,48.18C53.4,134.24,83.75,145,110.47,137.11,147.54,126.18,156.67,98.88,155.7,76.72Z" transform="translate(-5.77 -4)"/><g class="cls-12"><path class="cls-13" d="M151.59,94.8c-5.66,17.32-28.54,29.25-46.35,23.82-17.42-5.31-26-18.27-31.57-28.95-2.74-5.27-5.13-11.9-9.51-16.75-6.16-6.81-15.58-9.27-23-6.18-8.56,3.54-11.14,13.51-11,17,.22,8.47,3.48,17.55,8.89,25.56,12.86,19.06,40.14,32.1,65.87,27.38C134.85,131.12,147.56,112.84,151.59,94.8Z" transform="translate(-5.77 -4)"/></g></g></g></svg>